<?xml version="1.0" standalone="no"?>
<!DOCTYPE svg PUBLIC "-//W3C//DTD SVG 20010904//EN"
 "http://www.w3.org/TR/2001/REC-SVG-20010904/DTD/svg10.dtd">
<svg version="1.0" xmlns="http://www.w3.org/2000/svg"
 width="1024.000000pt" height="1024.000000pt" viewBox="0 0 1024.000000 1024.000000"
 preserveAspectRatio="xMidYMid meet">

<g transform="translate(0.000000,1024.000000) scale(0.100000,-0.100000)"
fill="#000000" stroke="none">
<path d="M0 5120 l0 -5120 5120 0 5120 0 0 5120 0 5120 -5120 0 -5120 0 0
-5120z m5300 4135 c90 -159 221 -391 293 -515 72 -124 155 -270 183 -325 l53
-99 -59 -56 c-49 -46 -61 -65 -75 -115 -9 -33 -20 -70 -23 -83 -7 -23 -9 -24
-136 -23 -70 0 -129 1 -130 3 -1 2 -62 103 -136 226 -73 122 -136 224 -139
226 -3 2 -69 -98 -147 -222 l-140 -226 -80 -16 c-126 -24 -219 -93 -268 -199
-19 -42 -21 -66 -24 -291 l-3 -246 -222 -112 c-122 -61 -332 -168 -466 -237
-134 -69 -245 -125 -248 -125 -6 0 -21 -26 612 1055 190 323 581 999 745 1285
203 355 232 402 240 393 4 -4 81 -138 170 -298z m1365 -1045 c29 -30 39 -50
56 -125 30 -130 42 -158 69 -172 17 -9 80 -13 198 -13 187 0 218 -7 269 -62
54 -58 53 -34 53 -879 0 -590 -3 -792 -12 -823 -17 -56 -82 -119 -138 -134
-35 -10 -317 -12 -1227 -10 l-1181 3 -44 30 c-28 20 -52 49 -70 84 l-28 55 0
785 c1 831 1 832 47 883 10 11 41 31 68 44 l50 24 446 0 c289 0 457 4 477 11
34 12 45 33 62 129 13 72 46 145 80 175 21 19 40 20 314 25 505 9 470 11 511
-30z m-2780 -1900 c182 -103 532 -303 779 -444 247 -141 454 -256 460 -256 7
0 55 25 107 56 51 31 138 80 191 110 l96 54 371 -2 371 -3 -566 -755 c-311
-415 -569 -756 -574 -758 -13 -5 3 -26 -805 1078 -630 860 -825 1129 -825
1136 0 7 37 -13 395 -216z m4048 -2372 c4 -79 7 -396 7 -704 0 -503 -2 -562
-16 -568 -30 -11 -209 -7 -222 6 -7 7 -12 34 -12 60 0 26 -4 48 -10 48 -5 0
-10 -4 -10 -9 0 -16 -104 -80 -160 -99 -86 -30 -157 -35 -237 -18 -96 20 -158
53 -220 118 -97 103 -133 208 -133 388 0 225 61 359 211 460 86 59 142 74 257
67 113 -6 190 -31 252 -84 l40 -35 0 256 0 256 123 0 124 0 6 -142z m-6071
101 c84 -18 185 -74 250 -139 32 -32 58 -63 58 -68 0 -12 -149 -142 -163 -142
-5 0 -27 16 -50 35 -50 43 -126 72 -209 81 -85 8 -143 -8 -190 -56 -34 -33
-38 -43 -38 -87 0 -92 32 -115 265 -188 251 -79 331 -129 387 -243 31 -62 33
-74 33 -167 0 -83 -4 -108 -23 -150 -49 -106 -110 -167 -223 -221 -156 -76
-371 -71 -545 12 -72 34 -214 153 -214 179 0 14 155 145 172 145 5 0 35 -20
66 -44 70 -54 121 -79 190 -96 93 -22 204 4 264 61 34 32 38 41 38 85 0 101
-52 143 -245 203 -261 80 -284 91 -359 171 -70 75 -89 126 -90 240 -1 83 2
102 26 152 52 112 160 196 298 232 67 18 229 20 302 5z m4496 -21 c5 -7 37
-87 70 -178 34 -91 127 -343 207 -560 203 -547 218 -589 211 -605 -4 -12 -30
-15 -131 -15 -70 0 -134 4 -144 10 -12 6 -34 56 -61 135 l-43 125 -266 0 -266
0 -39 -125 c-22 -68 -44 -129 -50 -135 -13 -13 -283 -14 -291 -1 -3 5 69 213
159 463 90 249 199 550 241 668 43 118 82 218 89 222 20 14 302 9 314 -4z
m-3379 -328 c110 -21 211 -92 256 -180 41 -80 46 -142 43 -505 l-3 -340 -125
0 -125 0 -5 340 c-4 297 -7 344 -22 372 -59 107 -220 122 -312 30 -63 -63 -66
-84 -66 -424 0 -219 -3 -302 -12 -311 -18 -18 -232 -16 -247 2 -8 9 -10 151
-9 507 l3 494 115 3 c133 3 140 -1 140 -82 l0 -50 43 41 c52 51 128 90 198
102 75 12 71 12 128 1z m1021 0 c139 -22 254 -109 302 -228 22 -55 23 -72 28
-425 l5 -368 -23 -6 c-28 -7 -199 1 -208 10 -3 3 -9 26 -11 51 l-6 46 -36 -29
c-166 -131 -424 -130 -547 1 -61 64 -79 113 -79 213 1 107 18 147 90 214 91
84 195 111 423 111 l142 0 0 30 c0 70 -52 136 -126 160 -51 17 -150 7 -204
-20 -25 -12 -64 -40 -86 -62 l-41 -39 -69 76 c-38 42 -71 81 -73 86 -9 28 124
126 210 154 100 34 201 42 309 25z m1171 -4 c92 -20 143 -48 214 -120 104
-103 145 -218 145 -399 0 -67 -6 -133 -16 -170 -50 -192 -188 -325 -360 -346
-128 -15 -264 24 -346 101 l-38 35 -2 -246 -3 -246 -125 0 -125 0 0 690 0 690
120 0 120 0 3 -63 3 -64 45 42 c69 64 172 105 274 109 14 0 55 -6 91 -13z
m3437 0 c81 -22 183 -73 224 -113 44 -43 45 -38 -54 -125 l-57 -50 -60 37
c-106 66 -168 78 -240 49 -87 -35 -95 -123 -16 -167 6 -3 78 -24 160 -47 82
-22 168 -52 191 -65 54 -32 97 -82 119 -139 37 -96 -2 -246 -81 -315 -184
-162 -552 -140 -696 41 l-32 41 70 63 c38 35 74 63 80 64 5 0 23 -13 38 -29
51 -53 118 -76 228 -76 82 0 101 3 124 21 37 27 50 66 33 106 -17 40 -77 68
-241 109 -144 35 -198 64 -241 127 -60 85 -72 172 -37 265 28 75 79 130 153
167 101 49 231 63 335 36z m-3583 -1711 c17 -7 43 -26 59 -43 l28 -30 -26 -17
c-25 -17 -27 -16 -57 9 -86 72 -198 31 -215 -79 -8 -54 8 -117 36 -145 51 -51
156 -44 190 13 35 56 28 67 -40 67 l-60 0 0 30 0 30 95 0 95 0 0 -45 c0 -49
-20 -108 -48 -138 -65 -73 -204 -75 -281 -4 -77 71 -82 230 -9 312 52 60 148
76 233 40z m802 10 c39 -17 73 -43 73 -56 0 -5 -11 -16 -25 -25 -23 -15 -26
-15 -51 5 -34 27 -78 27 -105 0 -18 -18 -19 -23 -6 -42 7 -11 45 -33 83 -49
88 -35 114 -64 114 -126 0 -83 -48 -122 -148 -122 -63 0 -110 23 -139 66 -12
19 -11 23 12 38 25 16 27 16 56 -8 41 -35 122 -37 139 -5 19 35 4 64 -42 84
-24 9 -60 24 -81 33 -76 31 -98 98 -54 163 36 54 107 72 174 44z m965 5 c173
-49 197 -319 36 -401 -62 -32 -154 -24 -205 17 -55 43 -83 105 -83 179 1 150
114 243 252 205z m1875 -5 c38 -16 73 -43 73 -55 0 -4 -11 -15 -25 -24 -24
-16 -27 -16 -52 4 -33 26 -77 26 -104 -1 -18 -18 -19 -23 -6 -42 7 -11 45 -33
83 -49 88 -35 114 -64 114 -126 0 -80 -48 -122 -139 -122 -61 0 -97 13 -133
48 -34 32 -35 37 -3 58 25 16 27 16 53 -8 49 -46 136 -41 148 8 9 35 -16 59
-97 89 -39 15 -78 38 -89 52 -40 51 -14 134 51 166 43 21 79 21 126 2z m-7017
-30 l0 -35 -90 0 -90 0 0 -50 0 -49 83 -3 82 -3 3 -32 3 -33 -86 0 -86 0 3
-52 3 -53 88 -3 87 -3 0 -29 0 -30 -125 0 -125 0 0 205 0 205 125 0 125 0 0
-35z m182 -137 l3 -173 73 -3 72 -3 0 -29 0 -30 -115 0 -115 0 0 205 0 205 40
0 40 0 2 -172z m314 -33 l-1 -205 -37 0 -38 0 0 205 0 205 39 0 39 0 -2 -205z
m262 85 c31 -66 59 -120 62 -120 4 0 32 54 63 120 l56 120 46 0 45 0 0 -205 0
-205 -35 0 -35 0 -1 148 0 147 -56 -112 c-50 -102 -59 -113 -83 -113 -24 0
-31 10 -77 108 l-51 107 -1 -142 -1 -143 -40 0 -40 0 0 205 0 205 46 0 46 0
56 -120z m462 -85 l0 -205 -35 0 -35 0 0 205 0 205 35 0 35 0 0 -205z m286 63
l89 -143 3 143 3 142 34 0 34 0 3 -205 3 -205 -36 0 c-35 0 -37 3 -125 140
-49 76 -91 139 -94 140 -3 0 -4 -63 -2 -140 l3 -140 -38 0 -38 0 1 198 c0 108
1 200 2 205 1 4 17 7 35 7 32 0 37 -6 123 -142z m547 -16 c32 -86 67 -179 78
-205 l19 -48 -42 3 c-39 3 -42 5 -56 46 l-14 42 -83 0 -83 0 -14 -42 c-13 -39
-18 -43 -51 -46 -20 -2 -37 0 -37 5 0 4 32 97 72 205 l73 198 40 0 40 0 58
-158z m407 123 l0 -35 -55 0 -55 0 0 -170 0 -170 -35 0 -35 0 0 170 0 170 -55
0 -55 0 0 35 0 35 145 0 145 0 0 -35z m345 0 l0 -30 -87 -3 -88 -3 0 -49 0
-50 80 0 80 0 0 -35 0 -35 -81 0 -80 0 3 -52 3 -53 88 -3 88 -3 -3 -27 -3 -27
-122 -3 -123 -3 0 206 0 206 123 -3 122 -3 0 -30z m970 18 c20 -51 145 -385
145 -389 0 -2 -17 -4 -38 -4 -35 0 -39 3 -53 43 l-16 42 -83 0 -83 0 -14 -42
c-14 -41 -17 -43 -53 -43 l-39 0 23 68 c20 56 98 266 121 325 5 12 18 17 45
17 27 0 40 -5 45 -17z m1025 -18 l0 -35 -85 0 -85 0 0 -55 0 -55 75 0 75 0 0
-30 0 -29 -72 -3 -73 -3 -3 -82 -3 -83 -34 0 -35 0 0 205 0 205 120 0 120 0 0
-35z m790 22 c46 -16 80 -68 80 -123 0 -36 -6 -51 -36 -84 l-36 -39 46 -71
c25 -39 46 -73 46 -75 0 -3 -18 -5 -39 -5 -38 0 -41 2 -86 75 -41 65 -51 75
-76 75 l-29 0 0 -75 0 -75 -35 0 -35 0 0 205 0 205 83 -1 c45 0 98 -5 117 -12z
m593 -54 c87 -226 127 -333 127 -338 0 -3 -17 -5 -38 -5 -35 0 -39 3 -52 43
l-15 42 -84 0 -84 0 -14 -42 c-14 -41 -17 -43 -53 -43 l-39 0 19 53 c19 54
113 308 125 340 5 12 18 17 44 17 37 0 38 -1 64 -67z m447 37 c54 -30 87 -77
96 -136 14 -97 -18 -179 -86 -218 -28 -17 -57 -22 -142 -25 l-108 -3 0 207 0
207 98 -4 c80 -3 105 -8 142 -28z"/>
<path d="M5870 7739 c-337 -59 -616 -335 -686 -679 -21 -107 -15 -271 16 -378
84 -297 292 -509 587 -598 76 -24 106 -27 218 -27 194 0 307 36 481 154 138
92 246 244 310 432 37 110 38 115 39 262 0 129 -3 160 -23 222 -97 309 -274
492 -572 588 -68 22 -107 28 -200 31 -63 1 -140 -2 -170 -7z m120 -159 c0 -22
-281 -571 -289 -565 -10 6 -188 295 -198 321 -13 34 140 157 252 203 96 40
235 64 235 41z m330 -71 c83 -43 181 -132 236 -213 19 -28 34 -54 34 -58 0 -5
-142 -8 -315 -8 -173 0 -315 3 -315 7 0 8 159 314 172 330 13 16 92 -8 188
-58z m-844 -381 c32 -51 105 -166 162 -256 57 -90 106 -170 109 -178 4 -12
-26 -14 -190 -14 l-195 0 -16 69 c-19 81 -21 202 -5 286 12 66 57 185 69 185
5 0 34 -42 66 -92z m1186 -55 c7 -16 12 -83 12 -158 1 -132 -9 -189 -51 -290
-36 -86 -34 -86 -103 32 -35 59 -107 181 -161 270 -55 89 -99 164 -99 167 0 3
88 6 195 6 l195 0 12 -27z m-257 -474 l97 -161 -28 -30 c-50 -53 -133 -109
-206 -139 -90 -37 -258 -72 -258 -54 0 4 48 95 100 190 15 28 60 113 100 190
67 130 88 165 96 165 1 0 46 -72 99 -161z m-365 -47 c0 -4 -29 -60 -65 -124
-35 -64 -72 -135 -81 -157 -9 -23 -22 -41 -29 -41 -23 0 -126 39 -187 72 -99
53 -261 218 -243 248 7 12 605 14 605 2z"/>
<path d="M6935 7710 c-85 -35 -98 -158 -23 -211 33 -24 101 -29 136 -10 33 18
62 70 62 112 0 79 -99 141 -175 109z"/>
<path d="M7345 3455 c-94 -36 -145 -123 -153 -261 -6 -115 14 -188 65 -245 50
-55 87 -72 158 -73 113 -1 192 48 236 147 20 43 24 68 23 147 -1 140 -43 223
-138 272 -52 26 -139 32 -191 13z"/>
<path d="M6107 3448 c-48 -150 -88 -276 -87 -280 0 -9 354 -11 362 -2 7 6
-174 554 -182 554 -3 0 -45 -123 -93 -272z"/>
<path d="M3829 3099 c-58 -9 -80 -20 -113 -60 -32 -37 -34 -90 -6 -136 27 -45
68 -63 142 -63 83 0 156 40 199 108 25 39 29 55 27 100 l-3 53 -100 2 c-55 2
-121 0 -146 -4z"/>
<path d="M4926 3450 c-100 -39 -147 -118 -154 -261 -12 -233 122 -359 326
-307 61 15 124 79 149 151 25 72 24 205 -1 272 -30 78 -69 121 -132 144 -68
26 -124 26 -188 1z"/>
<path d="M6693 1919 c-43 -13 -75 -61 -81 -120 -9 -93 43 -159 127 -159 26 0
56 7 69 16 67 47 75 179 14 237 -31 29 -83 40 -129 26z"/>
<path d="M3576 1818 c-14 -40 -26 -76 -26 -80 0 -5 25 -8 56 -8 41 0 55 3 52
13 -3 6 -15 42 -27 80 -13 37 -24 67 -25 67 -2 0 -15 -33 -30 -72z"/>
<path d="M5376 1882 c-4 -6 -15 -35 -25 -64 -11 -29 -22 -61 -26 -70 -6 -16
-1 -18 49 -18 39 0 56 4 56 13 0 29 -47 150 -54 139z"/>
<path d="M7110 1855 l0 -65 44 0 c80 0 123 63 76 110 -15 15 -33 20 -70 20
l-50 0 0 -65z"/>
<path d="M7743 1828 c-12 -35 -25 -71 -28 -80 -6 -16 0 -18 49 -18 35 0 56 4
56 11 0 17 -44 149 -50 149 -3 0 -15 -28 -27 -62z"/>
<path d="M8110 1779 l0 -142 57 7 c98 11 133 49 134 141 2 92 -42 135 -138
135 l-53 0 0 -141z"/>
</g>
</svg>
