<?xml version="1.0" standalone="no"?>
<!DOCTYPE svg PUBLIC "-//W3C//DTD SVG 20010904//EN"
 "http://www.w3.org/TR/2001/REC-SVG-20010904/DTD/svg10.dtd">
<svg version="1.0" xmlns="http://www.w3.org/2000/svg"
 width="1024.000000pt" height="1024.000000pt" viewBox="0 0 1024.000000 1024.000000"
 preserveAspectRatio="xMidYMid meet">

<g transform="translate(0.000000,1024.000000) scale(0.100000,-0.100000)"
fill="#000000" stroke="none">
<path d="M0 5120 l0 -5120 5120 0 5120 0 0 5120 0 5120 -5120 0 -5120 0 0
-5120z m5140 4430 c0 -13 135 -261 215 -395 40 -66 124 -205 187 -310 63 -104
147 -252 187 -327 l73 -138 -284 1 -283 0 -55 75 c-39 53 -57 72 -63 62 -5 -7
-67 -115 -138 -240 l-131 -228 -94 0 c-80 0 -102 -4 -142 -24 -136 -69 -165
-173 -155 -542 l6 -191 -234 -120 c-556 -286 -691 -354 -696 -350 -2 3 225
398 505 879 280 480 638 1097 797 1370 250 433 305 519 305 478z m1497 -1312
c61 -34 80 -73 102 -205 5 -35 16 -75 23 -90 l13 -28 195 -5 c224 -6 252 -14
305 -89 l30 -43 3 -817 2 -817 -23 -45 c-16 -29 -40 -54 -72 -74 l-48 -30
-1212 0 -1211 0 -42 28 c-23 15 -52 46 -64 70 l-23 42 -3 798 c-2 534 1 811 8
837 14 51 55 98 105 121 37 17 75 19 502 19 450 0 463 1 481 20 17 19 42 100
42 139 0 10 7 41 16 70 17 58 51 97 96 109 16 4 190 7 386 7 320 0 360 -2 389
-17z m-2835 -1874 c161 -92 392 -223 513 -292 121 -68 340 -194 487 -279 147
-84 281 -158 297 -164 28 -10 41 -4 188 84 87 52 169 98 183 103 32 11 770 12
770 1 0 -5 -40 -61 -88 -125 -49 -65 -156 -209 -238 -322 -82 -113 -218 -297
-302 -410 -84 -113 -228 -307 -321 -433 l-169 -227 -39 47 c-105 127 -873
1174 -1388 1893 -214 299 -208 290 -196 290 6 0 142 -75 303 -166z m4133
-3149 l0 -700 -85 -5 c-47 -3 -104 -3 -127 -1 l-43 3 0 54 0 53 -65 -49 c-177
-134 -414 -116 -560 42 -191 206 -193 576 -3 783 87 95 185 137 321 136 95 -1
170 -25 243 -81 l54 -41 0 249 c0 137 3 252 7 256 4 3 63 5 132 4 l126 -3 0
-700z m-6053 659 c91 -23 174 -69 240 -132 32 -30 58 -59 58 -64 0 -9 -33 -41
-133 -128 l-37 -32 -46 42 c-103 94 -272 123 -384 65 -65 -34 -89 -120 -50
-182 31 -51 85 -79 240 -124 241 -69 344 -130 405 -240 28 -51 30 -61 30 -165
0 -107 -1 -112 -37 -186 -61 -122 -152 -192 -299 -229 -71 -18 -102 -21 -204
-16 -130 6 -184 19 -275 68 -59 32 -180 146 -180 171 0 7 36 46 80 87 l81 73
50 -47 c98 -92 247 -133 372 -102 36 9 77 23 91 32 53 35 73 133 38 190 -27
43 -98 78 -247 120 -232 66 -343 135 -403 250 -25 45 -27 60 -27 160 1 122 15
170 77 248 107 134 350 196 560 141z m4511 -94 c62 -158 457 -1249 457 -1259
0 -7 -50 -11 -149 -11 l-149 0 -42 130 -43 130 -266 0 -267 0 -28 -87 c-16
-49 -37 -107 -47 -130 l-18 -43 -141 0 c-77 0 -140 3 -140 7 0 15 473 1318
483 1331 7 9 49 12 166 10 l156 -3 28 -75z m-3327 -271 c71 -27 137 -93 177
-177 l32 -67 3 -374 c2 -298 0 -376 -10 -382 -19 -12 -206 -11 -229 1 -18 10
-19 25 -19 326 0 342 -2 359 -58 417 -15 16 -50 34 -80 43 -76 22 -141 6 -196
-50 -65 -65 -70 -90 -76 -436 l-5 -305 -125 0 -125 0 -3 503 -2 502 124 0
c138 0 136 1 136 -72 l0 -40 46 41 c53 47 113 78 175 91 61 12 172 2 235 -21z
m934 20 c140 -22 242 -97 298 -217 l27 -57 3 -372 3 -373 -126 0 -125 0 0 45
0 45 -45 -34 c-66 -51 -146 -78 -246 -84 -158 -8 -265 47 -327 168 -31 61 -33
70 -30 150 5 129 50 200 159 256 100 50 307 69 433 40 l58 -14 -4 57 c-6 80
-34 131 -89 159 -86 45 -255 15 -335 -59 -11 -10 -24 -19 -30 -19 -5 1 -43 32
-84 70 l-75 70 45 41 c57 51 168 104 245 118 131 23 158 24 245 10z m1240 -19
c232 -88 349 -373 274 -667 -57 -226 -217 -357 -434 -357 -101 0 -173 24 -250
85 l-50 39 -2 -242 -3 -243 -130 0 -130 0 -3 684 c-1 430 1 688 7 694 14 14
208 19 232 7 15 -9 19 -22 19 -62 l0 -50 40 35 c44 41 121 83 177 97 58 14
191 4 253 -20z m3434 1 c89 -31 196 -105 196 -136 0 -7 -32 -42 -70 -79 l-70
-66 -45 35 c-142 108 -362 75 -331 -49 10 -39 53 -60 194 -95 159 -40 219 -69
275 -131 54 -60 71 -116 65 -208 -6 -82 -31 -134 -91 -189 -58 -53 -113 -81
-196 -99 -177 -37 -370 8 -491 115 l-45 40 77 76 77 76 45 -35 c59 -45 131
-68 214 -68 101 -1 156 33 156 97 0 61 -30 81 -196 125 -201 54 -299 121 -328
225 -26 92 3 209 68 278 45 48 140 93 232 111 54 10 206 -3 264 -23z m-3649
-1690 c22 -10 50 -30 63 -43 l23 -26 -27 -21 -26 -21 -30 25 c-75 63 -179 37
-209 -53 -14 -43 -7 -114 16 -148 22 -34 80 -57 124 -50 37 6 86 46 94 77 5
17 -1 19 -54 19 l-59 0 0 35 0 35 95 0 95 0 0 -42 c-1 -93 -61 -168 -152 -188
-129 -29 -248 69 -248 205 0 154 159 259 295 196z m808 8 c28 -14 67 -50 67
-61 0 -4 -11 -15 -25 -24 -24 -16 -27 -16 -49 5 -30 28 -80 28 -100 -1 -23
-32 -2 -57 63 -79 99 -32 137 -82 120 -158 -23 -105 -189 -133 -259 -43 -26
33 -25 39 11 57 29 16 31 15 59 -14 31 -34 64 -39 98 -15 49 34 18 86 -65 110
-72 21 -103 49 -110 100 -10 79 42 133 130 134 21 0 48 -5 60 -11z m982 -8
c82 -37 121 -112 112 -218 -7 -87 -40 -136 -114 -170 -44 -20 -64 -24 -101
-19 -109 15 -173 83 -180 190 -2 35 1 80 8 100 26 80 104 136 190 136 25 0 63
-9 85 -19z m1858 5 c18 -7 40 -25 50 -39 16 -24 15 -26 -8 -41 -24 -16 -27
-15 -54 5 -52 39 -115 21 -109 -30 3 -22 13 -29 61 -47 107 -37 152 -94 133
-170 -16 -64 -104 -107 -176 -85 -37 11 -110 64 -110 80 0 4 14 15 31 25 31
18 31 18 55 -8 58 -62 150 -32 123 41 -5 13 -26 27 -56 38 -98 34 -114 44
-129 81 -9 21 -13 48 -9 65 8 35 41 78 69 89 32 13 93 11 129 -4z m-7033 -31
l0 -35 -90 0 -90 0 0 -50 0 -50 80 0 80 0 0 -35 0 -35 -80 0 -80 0 0 -50 0
-50 90 0 90 0 0 -35 0 -35 -125 0 -125 0 0 205 0 205 125 0 125 0 0 -35z m187
-135 l-2 -170 78 0 77 0 0 -35 0 -35 -115 0 -115 0 0 205 0 205 40 0 39 0 -2
-170z m315 5 c1 -91 2 -182 3 -202 0 -37 -1 -38 -37 -41 l-38 -3 0 205 0 206
35 0 35 0 2 -165z m267 42 c30 -67 58 -125 61 -130 4 -4 33 51 65 123 l58 130
44 0 43 0 0 -205 0 -205 -35 0 -34 0 -3 145 -3 144 -54 -120 c-52 -118 -54
-120 -84 -117 -27 3 -34 11 -77 106 -26 56 -50 105 -54 109 -3 3 -6 -55 -6
-130 l0 -137 -35 0 -35 0 0 205 0 205 48 0 47 0 54 -123z m461 -82 l0 -205
-35 0 -35 0 0 205 0 205 35 0 35 0 0 -205z m283 70 c54 -74 99 -135 100 -135
1 0 1 61 -1 135 l-3 135 38 0 38 0 -1 -203 -2 -202 -28 -3 c-27 -2 -37 9 -126
134 l-98 137 0 -137 0 -136 -35 0 -35 0 0 205 0 205 28 0 c23 0 40 -18 125
-135z m568 -62 c41 -108 76 -201 78 -206 1 -4 -16 -7 -40 -5 -40 3 -43 5 -57
46 l-14 42 -82 0 -82 0 -14 -42 c-14 -39 -18 -43 -52 -46 -21 -2 -38 1 -38 6
0 8 89 249 139 375 9 23 16 27 49 27 l39 0 74 -197z m397 165 c-3 -33 -4 -33
-60 -36 l-58 -3 0 -169 0 -170 -35 0 -35 0 0 170 0 169 -57 3 c-57 3 -58 3
-61 36 l-3 32 156 0 156 0 -3 -32z m332 -3 l0 -35 -85 0 -85 0 0 -50 0 -49 78
-3 77 -3 3 -32 3 -33 -80 0 -81 0 0 -50 0 -50 85 0 85 0 0 -35 0 -35 -120 0
-120 0 0 205 0 205 120 0 120 0 0 -35z m1047 -160 c39 -104 72 -196 72 -203 1
-9 -10 -12 -36 -10 -35 3 -39 7 -53 46 l-14 42 -82 0 -81 0 -17 -45 c-17 -43
-19 -45 -58 -45 -34 0 -39 3 -33 18 4 9 39 102 77 205 l71 188 41 -3 41 -3 72
-190z m953 160 l0 -35 -85 0 -85 0 0 -55 0 -55 80 0 80 0 0 -35 0 -35 -80 0
-80 0 0 -80 0 -80 -35 0 -35 0 0 205 0 205 120 0 120 0 0 -35z m807 15 c79
-48 83 -159 9 -218 -22 -17 -23 -21 -12 -38 7 -10 30 -45 50 -76 l37 -58 -43
1 c-42 0 -44 1 -90 75 -39 60 -52 74 -73 74 -25 0 -25 -1 -25 -76 l0 -75 -37
3 -38 3 3 200 c1 110 2 201 2 203 0 1 42 2 93 2 74 0 98 -4 124 -20z m553 16
c0 -2 34 -93 75 -202 41 -109 75 -200 75 -202 0 -2 -19 -2 -42 0 -39 3 -42 5
-56 46 l-14 42 -82 0 -82 0 -14 -42 c-14 -39 -18 -43 -52 -46 -21 -2 -38 1
-38 6 0 9 138 380 146 394 5 8 84 12 84 4z m434 -7 c22 -6 56 -29 81 -53 79
-80 83 -194 9 -276 -46 -50 -105 -70 -211 -70 l-83 0 0 205 0 205 83 0 c45 0
99 -5 121 -11z"/>
<path d="M5876 7745 c-285 -54 -503 -224 -625 -487 -60 -128 -75 -202 -75
-353 0 -147 19 -231 79 -362 87 -188 248 -344 433 -419 122 -49 179 -59 332
-59 136 1 151 3 235 32 85 29 187 81 245 125 57 43 155 147 195 208 90 136
133 270 142 440 9 180 -31 334 -129 497 -75 126 -226 258 -365 319 -139 62
-325 85 -467 59z m104 -153 c0 -10 -81 -190 -164 -367 -31 -66 -67 -142 -80
-169 l-22 -49 -24 39 c-13 21 -61 96 -107 166 -46 69 -83 131 -83 136 0 15
103 108 163 146 73 47 145 75 232 91 89 17 85 16 85 7z m244 -32 c81 -28 157
-73 223 -133 53 -49 133 -157 133 -181 0 -10 -78 -10 -573 3 l-48 1 54 103
c30 56 69 130 87 165 21 39 39 62 50 62 9 0 43 -9 74 -20z m-679 -541 c151
-234 205 -320 205 -328 0 -11 -385 0 -391 11 -4 6 -13 47 -19 91 -20 125 -1
285 46 390 9 20 20 37 23 37 3 0 65 -91 136 -201z m1001 81 l111 0 12 -57 c16
-80 14 -192 -5 -276 -20 -90 -63 -199 -76 -195 -19 7 -297 466 -313 517 l-7
24 83 -6 c46 -4 134 -7 195 -7z m-184 -412 c31 -51 75 -126 99 -167 l43 -74
-60 -56 c-71 -67 -173 -123 -274 -150 -85 -22 -150 -32 -150 -24 0 3 59 121
132 262 72 141 136 266 142 278 6 13 12 23 12 23 1 0 26 -42 56 -92z m-346
-166 c-13 -34 -132 -281 -140 -290 -7 -6 -184 66 -227 94 -61 38 -145 120
-185 179 l-34 50 147 5 c82 3 216 4 300 2 l152 -3 -13 -37z"/>
<path d="M6918 7705 c-56 -31 -75 -114 -39 -169 26 -39 57 -55 104 -56 158 -1
168 224 10 237 -31 2 -58 -2 -75 -12z"/>
<path d="M7350 3298 c-56 -19 -136 -106 -154 -168 -23 -76 -21 -187 4 -254 60
-158 266 -214 385 -105 62 57 80 115 80 254 0 105 -2 113 -31 165 -42 75 -100
111 -186 116 -35 2 -79 -2 -98 -8z"/>
<path d="M6110 3304 c-47 -147 -86 -273 -88 -280 -3 -12 29 -14 181 -14 l184
0 -91 280 c-50 154 -93 280 -96 280 -3 0 -43 -120 -90 -266z"/>
<path d="M3790 2925 c-25 -8 -59 -28 -75 -45 -25 -26 -30 -40 -30 -80 0 -42 5
-54 31 -81 87 -87 276 -41 338 83 14 29 26 68 26 89 0 34 -2 37 -37 43 -65 10
-206 5 -253 -9z"/>
<path d="M4926 3295 c-121 -43 -185 -217 -142 -385 20 -77 44 -115 97 -153 58
-42 135 -55 202 -34 109 34 173 123 184 255 7 82 -16 180 -55 237 -55 81 -183
117 -286 80z"/>
<path d="M6668 1753 c-44 -28 -61 -71 -56 -141 5 -70 28 -104 85 -122 45 -15
84 -5 119 31 27 28 29 36 29 105 0 74 -1 76 -37 110 -43 39 -94 45 -140 17z"/>
<path d="M3580 1662 c-13 -37 -25 -73 -28 -79 -3 -10 11 -13 52 -13 31 0 56 4
56 10 0 9 -48 141 -53 147 -2 1 -14 -28 -27 -65z"/>
<path d="M5353 1654 l-30 -79 54 -3 c31 -2 57 -1 59 1 2 2 -9 39 -25 82 l-28
78 -30 -79z"/>
<path d="M7110 1700 l0 -70 48 0 c63 0 86 17 86 65 0 50 -30 75 -90 75 l-44 0
0 -70z"/>
<path d="M7740 1662 c-13 -37 -25 -73 -28 -79 -3 -10 11 -13 52 -13 31 0 56 4
56 10 0 9 -48 141 -53 147 -2 1 -14 -28 -27 -65z"/>
<path d="M8110 1625 l0 -135 54 0 c114 0 175 90 132 195 -20 48 -68 75 -133
75 l-53 0 0 -135z"/>
</g>
</svg>
